<?xml version="1.0" encoding="UTF-8" standalone="no"?>
<!DOCTYPE svg PUBLIC "-//W3C//DTD SVG 1.1//EN" "http://www.w3.org/Graphics/SVG/1.1/DTD/svg11.dtd">
<svg width="100%" height="100%" viewBox="0 0 969 540" version="1.1" xmlns="http://www.w3.org/2000/svg" xmlns:xlink="http://www.w3.org/1999/xlink" xml:space="preserve" xmlns:serif="http://www.serif.com/" style="fill-rule:evenodd;clip-rule:evenodd;stroke-linejoin:round;stroke-miterlimit:1.41421;">
    <g transform="matrix(1,0,0,1,-2390.16,-228.455)">
        <g id="logo" transform="matrix(1.00506,0,0,0.92535,1088.19,35.7802)">
            <rect x="1295.42" y="208.219" width="963.163" height="583.563" style="fill:none;"/>
            <g id="new_length" transform="matrix(0.994969,0,0,1.08067,-1082.72,-38.6666)">
                <path d="M3070.08,602.474L3070.08,714.003C3069.75,718.829 3069.41,723.678 3068.11,728.317C3062.91,746.894 3047.03,761.956 3027.82,765.949C3006.64,770.349 2983.17,760.448 2971.69,741.57C2969.18,737.436 2967.24,732.977 2965.93,728.317C2964.19,722.095 2964.41,720.405 2963.97,714.003C2963.97,618.608 2964.42,523.211 2963.97,427.817C2963.7,394.004 2943.09,361.481 2912.06,346.978C2886.98,335.258 2856.36,336.08 2831.93,349.168C2803.43,364.433 2784.44,395.794 2784.39,428.445L2784.39,571.246C2784.06,576.072 2783.72,580.921 2782.42,585.561C2777.22,604.137 2761.34,619.2 2742.13,623.192C2720.89,627.605 2697.43,617.606 2686,598.813C2683.49,594.679 2681.55,590.22 2680.25,585.561C2678.5,579.338 2678.72,577.648 2678.28,571.246C2678.28,523.437 2678.51,475.626 2678.28,427.817C2677.98,390.142 2652.2,354.042 2614.92,342.563C2592.54,335.673 2567.43,337.978 2546.72,348.912C2517.94,364.11 2498.76,395.764 2498.7,428.445L2498.7,571.246C2498.37,576.072 2498.04,580.921 2496.74,585.561C2491.53,604.137 2475.66,619.2 2456.44,623.192C2435.27,627.592 2411.8,617.692 2400.32,598.813C2397.8,594.679 2395.87,590.22 2394.56,585.561C2392.82,579.338 2393.03,577.648 2392.59,571.246C2392.59,523.422 2392.52,475.597 2392.59,427.773C2392.87,370.108 2419.92,312.895 2465.24,276.162C2499.63,248.293 2543.8,232.715 2587.86,232.505C2588.49,232.504 2589.12,232.505 2589.75,232.508C2640.9,232.914 2691.64,254.109 2727.82,290.736C2729.3,292.235 2731.34,294.383 2731.34,294.383C2779.57,243.045 2854.43,221.224 2922.51,238.531C2958.47,247.675 2991.34,267.597 3016.82,294.627C3019.1,292.172 3021.46,289.775 3023.88,287.44C3058.79,253.749 3106.05,233.811 3154.83,232.572C3156.72,232.524 3158.61,232.506 3160.5,232.509C3219.88,232.792 3278.81,261.614 3315.38,309.313C3333.93,333.507 3346.73,362.064 3352.37,391.994C3362.14,443.837 3350.01,499.319 3319.22,542.307C3290.59,582.29 3246.35,610.985 3198.09,620.556C3155.03,629.094 3109.17,622.51 3070.08,602.474ZM3159.57,338.611C3137.76,338.715 3116.14,347.02 3099.93,361.578C3071.73,386.911 3061.61,430.859 3078.67,466.773C3093.07,497.102 3125.28,518.086 3159.57,518.195C3182.48,518.267 3205.17,509.233 3221.79,493.386C3249.59,466.886 3258.21,421.829 3239.1,386.146C3223.99,357.917 3192.99,338.974 3160.74,338.615C3160.35,338.612 3159.96,338.611 3159.57,338.611Z" style="fill:#04a89c;fill-rule:nonzero;"/>
                <!-- darkblue: rgb(40,47,66)
                green: #04a89c -->
            </g>
        </g>
    </g>
</svg>
